<svg width="164" height="195" viewBox="0 0 164 195" fill="none" xmlns="http://www.w3.org/2000/svg">
<g filter="url(#filter0_d)">
<path d="M84.9117 64.22C110.392 64.22 129.112 69.5933 141.072 80.34C153.205 90.9133 159.272 104.867 159.272 122.2C159.272 133.64 156.238 144.213 150.172 153.92C144.278 163.453 135.092 171.253 122.612 177.32C110.132 183.213 94.6184 186.16 76.0717 186.16C63.2451 186.16 50.4184 184.773 37.5917 182C24.9384 179.227 13.8451 175.153 4.31172 169.78L25.1117 124.54C32.7384 128.873 40.7117 132.167 49.0317 134.42C57.5251 136.673 65.7584 137.8 73.7317 137.8C80.8384 137.8 86.5584 136.587 90.8917 134.16C95.3984 131.56 97.6517 128.007 97.6517 123.5C97.6517 119.167 95.6584 115.96 91.6717 113.88C87.6851 111.627 80.4917 110.5 70.0917 110.5H17.3117L26.4117 -1.23978e-05H147.312V46.28H76.8517L75.5517 64.22H84.9117Z" fill="#F4F6FA"/>
</g>
<defs>
<filter id="filter0_d" x="0.311707" y="0" width="162.96" height="194.16" filterUnits="userSpaceOnUse" color-interpolation-filters="sRGB">
<feFlood flood-opacity="0" result="BackgroundImageFix"/>
<feColorMatrix in="SourceAlpha" type="matrix" values="0 0 0 0 0 0 0 0 0 0 0 0 0 0 0 0 0 0 127 0"/>
<feOffset dy="4"/>
<feGaussianBlur stdDeviation="2"/>
<feColorMatrix type="matrix" values="0 0 0 0 0.829167 0 0 0 0 0.286753 0 0 0 0 0.286753 0 0 0 0.2 0"/>
<feBlend mode="normal" in2="BackgroundImageFix" result="effect1_dropShadow"/>
<feBlend mode="normal" in="SourceGraphic" in2="effect1_dropShadow" result="shape"/>
</filter>
</defs>
</svg>
